<svg width="22" height="15" viewBox="0 0 22 15" fill="none" xmlns="http://www.w3.org/2000/svg">
<path d="M0 14.4927C0.15 12.5156 0.696 10.6956 1.638 9.03264C2.58 7.36969 3.834 6.04856 5.4 5.06927L3.55 1.52163C3.45 1.35533 3.425 1.1798 3.475 0.995026C3.525 0.810254 3.63333 0.671674 3.8 0.579288C3.93333 0.486901 4.08333 0.468424 4.25 0.523856C4.41667 0.579288 4.55 0.690151 4.65 0.856447L6.5 4.40408C7.93333 3.7389 9.43333 3.40631 11 3.40631C12.5667 3.40631 14.0667 3.7389 15.5 4.40408L17.35 0.856447C17.45 0.690151 17.5833 0.579288 17.75 0.523856C17.9167 0.468424 18.0667 0.486901 18.2 0.579288C18.3667 0.671674 18.475 0.810254 18.525 0.995026C18.575 1.1798 18.55 1.35533 18.45 1.52163L16.6 5.06927C18.1667 6.04856 19.4207 7.36969 20.362 9.03264C21.3033 10.6956 21.8493 12.5156 22 14.4927H0ZM6 11.4439C6.35 11.4439 6.646 11.3098 6.888 11.0415C7.13 10.7732 7.25067 10.4454 7.25 10.0581C7.25 9.67011 7.129 9.34195 6.887 9.07366C6.645 8.80537 6.34933 8.6716 6 8.67233C5.65 8.67233 5.354 8.80648 5.112 9.07477C4.87 9.34306 4.74933 9.67085 4.75 10.0581C4.75 10.4462 4.871 10.7743 5.113 11.0426C5.355 11.3109 5.65067 11.4447 6 11.4439ZM16 11.4439C16.35 11.4439 16.646 11.3098 16.888 11.0415C17.13 10.7732 17.2507 10.4454 17.25 10.0581C17.25 9.67011 17.129 9.34195 16.887 9.07366C16.645 8.80537 16.3493 8.6716 16 8.67233C15.65 8.67233 15.354 8.80648 15.112 9.07477C14.87 9.34306 14.7493 9.67085 14.75 10.0581C14.75 10.4462 14.871 10.7743 15.113 11.0426C15.355 11.3109 15.6507 11.4447 16 11.4439Z" fill="rgba(255, 255, 255, 0.8)"/>
</svg>
