<svg width="97" height="36" viewBox="0 0 97 36" fill="none" xmlns="http://www.w3.org/2000/svg">
<rect width="97" height="36" rx="18" fill="white"/>
<rect width="97" height="36" rx="18" fill="url(#paint0_linear_14248_303)"/>
<g clip-path="url(#clip0_14248_303)">
<path d="M27.9867 19.0649C27.7507 15.9916 26.3198 14.0658 25.0575 12.3663C23.8886 10.7929 22.8791 9.43427 22.8791 7.43004C22.8791 7.26905 22.7889 7.12191 22.646 7.04813C22.5026 6.97392 22.3303 6.98607 22.1999 7.08081C20.3041 8.43739 18.7223 10.7238 18.1698 12.9054C17.7862 14.4242 17.7354 16.1316 17.7283 17.2593C15.9775 16.8854 15.5809 14.2666 15.5768 14.238C15.557 14.1022 15.4741 13.984 15.3533 13.9194C15.2313 13.8557 15.0879 13.8511 14.9642 13.9123C14.8724 13.9567 12.7108 15.0551 12.585 19.4405C12.5762 19.5864 12.5758 19.7327 12.5758 19.879C12.5758 24.1394 16.0425 27.6059 20.3033 27.6059C20.3092 27.6063 20.3154 27.6072 20.3205 27.6059C20.3222 27.6059 20.3238 27.6059 20.3259 27.6059C24.5762 27.5937 28.0307 24.1319 28.0307 19.879C28.0307 19.6648 27.9867 19.0649 27.9867 19.0649ZM20.3033 26.7474C18.8829 26.7474 17.7275 25.5166 17.7275 24.0037C17.7275 23.9521 17.727 23.9001 17.7308 23.8364C17.748 23.1983 17.8692 22.7628 18.0021 22.4731C18.2511 23.008 18.6963 23.4998 19.4195 23.4998C19.6568 23.4998 19.8488 23.3077 19.8488 23.0705C19.8488 22.4593 19.8614 21.7542 20.0136 21.1178C20.149 20.5535 20.4727 19.9532 20.8827 19.4719C21.0651 20.0966 21.4206 20.6021 21.7678 21.0955C22.2646 21.8015 22.7781 22.5314 22.8683 23.776C22.8737 23.8498 22.8792 23.924 22.8792 24.0037C22.8791 25.5165 21.7237 26.7474 20.3033 26.7474Z" fill="white"/>
</g>
<path d="M32.9486 23.4421L35.3606 11.0401H44.0186L43.5326 13.5961H37.7186L35.8106 23.4421H32.9486ZM46.3932 20.2921C46.2012 21.2761 45.7812 22.0681 45.1332 22.6681C44.4972 23.2561 43.5852 23.5501 42.3972 23.5501C41.8332 23.5501 41.3112 23.4841 40.8312 23.3521C40.3632 23.2201 39.9552 23.0221 39.6072 22.7581C39.2592 22.4941 38.9832 22.1581 38.7792 21.7501C38.5872 21.3421 38.4912 20.8561 38.4912 20.2921C38.4912 20.1601 38.4972 20.0281 38.5092 19.8961C38.5212 19.7641 38.5392 19.6261 38.5632 19.4821L38.8872 17.7001C39.0912 16.5721 39.5712 15.7441 40.3272 15.2161C41.0832 14.6881 42.0072 14.4241 43.0992 14.4241C43.6392 14.4241 44.1372 14.5021 44.5932 14.6581C45.0492 14.8021 45.4392 15.0181 45.7632 15.3061C46.0992 15.5821 46.3572 15.9181 46.5372 16.3141C46.7172 16.7101 46.8072 17.1541 46.8072 17.6461C46.8072 17.7661 46.8012 17.8921 46.7892 18.0241C46.7772 18.1561 46.7592 18.2881 46.7352 18.4201L46.3932 20.2921ZM44.1072 18.3841C44.1192 18.3241 44.1252 18.2641 44.1252 18.2041C44.1372 18.1441 44.1432 18.0841 44.1432 18.0241C44.1432 17.6041 44.0172 17.3101 43.7652 17.1421C43.5132 16.9621 43.2432 16.8721 42.9552 16.8721C42.6192 16.8721 42.3072 16.9681 42.0192 17.1601C41.7312 17.3521 41.5452 17.6821 41.4612 18.1501L41.2092 19.6801C41.1972 19.7401 41.1912 19.7941 41.1912 19.8421C41.1912 19.8901 41.1912 19.9381 41.1912 19.9861C41.1912 20.4061 41.3232 20.6941 41.5872 20.8501C41.8512 21.0061 42.1272 21.0841 42.4152 21.0841C42.8352 21.0841 43.1532 20.9761 43.3692 20.7601C43.5972 20.5441 43.7532 20.2261 43.8372 19.8061L44.1072 18.3841ZM54.7869 20.3281C54.6909 20.8081 54.5409 21.2461 54.3369 21.6421C54.1329 22.0381 53.8749 22.3801 53.5629 22.6681C53.2509 22.9561 52.8849 23.1781 52.4649 23.3341C52.0449 23.4901 51.5709 23.5681 51.0429 23.5681C50.7429 23.5681 50.3889 23.5381 49.9809 23.4781C49.5729 23.4181 49.2129 23.2801 48.9009 23.0641L48.1269 27.0061H45.4629L47.8929 14.5501H50.3769L50.3949 15.3241C50.8509 15.0601 51.3129 14.8501 51.7809 14.6941C52.2609 14.5381 52.6569 14.4601 52.9689 14.4601C54.6009 14.4601 55.4169 15.1921 55.4169 16.6561C55.4169 16.8241 55.4049 16.9981 55.3809 17.1781C55.3569 17.3581 55.3269 17.5501 55.2909 17.7541L54.7869 20.3281ZM52.5549 18.0061C52.5909 17.8621 52.6089 17.7301 52.6089 17.6101C52.6089 17.3341 52.5369 17.1481 52.3929 17.0521C52.2489 16.9561 52.0749 16.9081 51.8709 16.9081C51.6309 16.9081 51.3249 16.9741 50.9529 17.1061C50.5929 17.2261 50.2629 17.3701 49.9629 17.5381L49.3689 20.5981C49.6809 20.7661 49.9509 20.8861 50.1789 20.9581C50.4189 21.0181 50.6589 21.0481 50.8989 21.0481C51.1989 21.0481 51.4689 20.9641 51.7089 20.7961C51.9489 20.6281 52.1109 20.3341 52.1949 19.9141L52.5549 18.0061ZM59.7033 18.3661L59.4153 20.2561H58.8573C58.6053 20.2561 58.4013 20.3101 58.2453 20.4181C58.1013 20.5261 57.9693 20.7361 57.8493 21.0481L56.9673 23.4421H54.3033L55.4553 20.5441C55.5153 20.3761 55.6353 20.1721 55.8153 19.9321C55.9953 19.6921 56.2413 19.5421 56.5533 19.4821C56.1333 19.3021 55.8273 19.0681 55.6353 18.7801C55.4553 18.4921 55.3653 18.1381 55.3653 17.7181C55.3653 17.5861 55.3773 17.4301 55.4013 17.2501C55.4253 17.0701 55.4493 16.9501 55.4733 16.8901C55.6053 16.3981 55.7973 15.9901 56.0493 15.6661C56.3013 15.3421 56.6013 15.0901 56.9493 14.9101C57.2973 14.7181 57.6873 14.5861 58.1193 14.5141C58.5513 14.4301 59.0133 14.3881 59.5053 14.3881C59.7693 14.3881 60.0693 14.4061 60.4053 14.4421C60.7413 14.4661 61.0893 14.5141 61.4493 14.5861C61.8093 14.6581 62.1693 14.7481 62.5293 14.8561C62.8893 14.9641 63.2313 15.0961 63.5553 15.2521L62.1333 23.4421H59.4873L60.7473 16.8181C60.2793 16.6741 59.8533 16.6021 59.4693 16.6021C59.1213 16.6021 58.8453 16.6621 58.6413 16.7821C58.4493 16.9021 58.3173 17.1121 58.2453 17.4121C58.2333 17.4721 58.2213 17.5381 58.2093 17.6101C58.2093 17.6821 58.2093 17.7241 58.2093 17.7361C58.2093 17.8801 58.2453 18.0181 58.3173 18.1501C58.3893 18.2821 58.5693 18.3541 58.8573 18.3661H59.7033ZM66.2699 14.5501L65.7479 17.2681C65.7359 17.3281 65.7299 17.4121 65.7299 17.5201C65.7299 18.0601 66.1619 18.3301 67.0259 18.3301C67.2419 18.3301 67.4819 18.3001 67.7459 18.2401C68.0099 18.1801 68.2499 18.1141 68.4659 18.0421L69.1139 14.5501H71.7239L69.9959 23.4421H67.3859L68.0339 20.0941C67.6979 20.2021 67.3499 20.2921 66.9899 20.3641C66.6299 20.4241 66.2759 20.4541 65.9279 20.4541C65.5319 20.4541 65.1539 20.4121 64.7939 20.3281C64.4339 20.2441 64.1159 20.1181 63.8399 19.9501C63.5759 19.7701 63.3659 19.5421 63.2099 19.2661C63.0539 18.9781 62.9759 18.6361 62.9759 18.2401C62.9759 18.1441 62.9819 18.0421 62.9939 17.9341C63.0059 17.8141 63.0239 17.6941 63.0479 17.5741L63.6419 14.5501H66.2699ZM78.9703 20.2921C78.7783 21.2761 78.3583 22.0681 77.7103 22.6681C77.0743 23.2561 76.1623 23.5501 74.9743 23.5501C74.4103 23.5501 73.8883 23.4841 73.4083 23.3521C72.9403 23.2201 72.5323 23.0221 72.1843 22.7581C71.8363 22.4941 71.5603 22.1581 71.3563 21.7501C71.1643 21.3421 71.0683 20.8561 71.0683 20.2921C71.0683 20.1601 71.0743 20.0281 71.0863 19.8961C71.0983 19.7641 71.1163 19.6261 71.1403 19.4821L71.4643 17.7001C71.6683 16.5721 72.1483 15.7441 72.9043 15.2161C73.6603 14.6881 74.5843 14.4241 75.6763 14.4241C76.2163 14.4241 76.7143 14.5021 77.1703 14.6581C77.6263 14.8021 78.0163 15.0181 78.3403 15.3061C78.6763 15.5821 78.9343 15.9181 79.1143 16.3141C79.2943 16.7101 79.3843 17.1541 79.3843 17.6461C79.3843 17.7661 79.3783 17.8921 79.3663 18.0241C79.3543 18.1561 79.3363 18.2881 79.3123 18.4201L78.9703 20.2921ZM76.6843 18.3841C76.6963 18.3241 76.7023 18.2641 76.7023 18.2041C76.7143 18.1441 76.7203 18.0841 76.7203 18.0241C76.7203 17.6041 76.5943 17.3101 76.3423 17.1421C76.0903 16.9621 75.8203 16.8721 75.5323 16.8721C75.1963 16.8721 74.8843 16.9681 74.5963 17.1601C74.3083 17.3521 74.1223 17.6821 74.0383 18.1501L73.7863 19.6801C73.7743 19.7401 73.7683 19.7941 73.7683 19.8421C73.7683 19.8901 73.7683 19.9381 73.7683 19.9861C73.7683 20.4061 73.9003 20.6941 74.1643 20.8501C74.4283 21.0061 74.7043 21.0841 74.9923 21.0841C75.4123 21.0841 75.7303 20.9761 75.9463 20.7601C76.1743 20.5441 76.3303 20.2261 76.4143 19.8061L76.6843 18.3841ZM79.9481 19.5541L81.4961 10.9141H84.0701L82.2521 19.5541H79.9481ZM80.3441 23.5681C79.9481 23.5681 79.6241 23.4421 79.3721 23.1901C79.1321 22.9381 79.0121 22.6261 79.0121 22.2541C79.0121 21.9901 79.0661 21.7441 79.1741 21.5161C79.2941 21.2761 79.4441 21.0721 79.6241 20.9041C79.8041 20.7361 80.0081 20.6041 80.2361 20.5081C80.4641 20.4001 80.6981 20.3461 80.9381 20.3461C81.3221 20.3461 81.6401 20.4661 81.8921 20.7061C82.1441 20.9341 82.2701 21.2401 82.2701 21.6241C82.2701 21.8761 82.2161 22.1221 82.1081 22.3621C82.0121 22.5901 81.8741 22.7941 81.6941 22.9741C81.5261 23.1541 81.3221 23.2981 81.0821 23.4061C80.8541 23.5141 80.6081 23.5681 80.3441 23.5681Z" fill="white"/>
<defs>
<linearGradient id="paint0_linear_14248_303" x1="97" y1="0" x2="-0.940682" y2="33.2272" gradientUnits="userSpaceOnUse">
<stop offset="0.125" stop-color="#FFC90A"/>
<stop offset="1" stop-color="#FF2E00"/>
</linearGradient>
<clipPath id="clip0_14248_303">
<rect width="20.6066" height="20.6066" fill="white" transform="translate(10 7)"/>
</clipPath>
</defs>
</svg>
