<svg width="28" height="29" viewBox="0 0 28 29" fill="none" xmlns="http://www.w3.org/2000/svg">
<g clip-path="url(#clip0_510_3046)">
<path d="M25.6832 16.0139L21.1105 18.6016L17.0092 14.5264L21.1432 10.4185L25.6832 12.9876C25.9511 13.1391 26.174 13.359 26.3291 13.6248C26.4842 13.8907 26.566 14.193 26.566 14.5007C26.566 14.8085 26.4842 15.1108 26.3291 15.3767C26.174 15.6425 25.9511 15.8624 25.6832 16.0139ZM1.55256 1.57745C1.46597 1.78764 1.42157 2.0128 1.42188 2.24012V26.7602C1.42188 27.0134 1.47438 27.249 1.56656 27.4602L14.5822 14.5252L1.55256 1.57745ZM15.7957 13.3201L19.5971 9.54236L4.01801 0.72694C3.68408 0.535063 3.29517 0.461481 2.91422 0.518104L15.7957 13.3201ZM15.7957 15.7316L2.96089 28.4869C3.30859 28.5289 3.67497 28.4682 4.01801 28.2734L19.5645 19.4766L15.7957 15.7316Z" fill="white"/>
</g>
<defs>
<clipPath id="clip0_510_3046">
<rect width="28" height="28" fill="white" transform="translate(0 0.5)"/>
</clipPath>
</defs>
</svg>
