<svg width="28" height="28" viewBox="0 0 28 28" fill="none" xmlns="http://www.w3.org/2000/svg">
<g clip-path="url(#clip0_1080_3619)">
<path d="M10.5 20.3L20.3 14L10.5 7.7V20.3ZM14 28C12.0633 28 10.2433 27.6323 8.54 26.8968C6.83667 26.1613 5.355 25.1641 4.095 23.905C2.835 22.645 1.83773 21.1633 1.1032 19.46C0.368667 17.7567 0.000933333 15.9367 0 14C0 12.0633 0.367733 10.2433 1.1032 8.54C1.83867 6.83667 2.83593 5.355 4.095 4.095C5.355 2.835 6.83667 1.83773 8.54 1.1032C10.2433 0.368667 12.0633 0.000933333 14 0C15.9367 0 17.7567 0.367733 19.46 1.1032C21.1633 1.83867 22.645 2.83593 23.905 4.095C25.165 5.355 26.1627 6.83667 26.8982 8.54C27.6337 10.2433 28.0009 12.0633 28 14C28 15.9367 27.6323 17.7567 26.8968 19.46C26.1613 21.1633 25.1641 22.645 23.905 23.905C22.645 25.165 21.1633 26.1627 19.46 26.8982C17.7567 27.6337 15.9367 28.0009 14 28Z" fill="white"/>
</g>
<defs>
<clipPath id="clip0_1080_3619">
<rect width="28" height="28" fill="white"/>
</clipPath>
</defs>
</svg>
