<svg width="28" height="29" viewBox="0 0 28 29" fill="none" xmlns="http://www.w3.org/2000/svg">
<g clip-path="url(#clip0_677_2396)">
<path d="M10.5 20.8L20.3 14.5L10.5 8.2V20.8ZM14 28.5C12.0633 28.5 10.2433 28.1323 8.54 27.3968C6.83667 26.6613 5.355 25.6641 4.095 24.405C2.835 23.145 1.83773 21.6633 1.1032 19.96C0.368667 18.2567 0.000933333 16.4367 0 14.5C0 12.5633 0.367733 10.7433 1.1032 9.04C1.83867 7.33667 2.83593 5.855 4.095 4.595C5.355 3.335 6.83667 2.33773 8.54 1.6032C10.2433 0.868667 12.0633 0.500933 14 0.5C15.9367 0.5 17.7567 0.867733 19.46 1.6032C21.1633 2.33867 22.645 3.33593 23.905 4.595C25.165 5.855 26.1627 7.33667 26.8982 9.04C27.6337 10.7433 28.0009 12.5633 28 14.5C28 16.4367 27.6323 18.2567 26.8968 19.96C26.1613 21.6633 25.1641 23.145 23.905 24.405C22.645 25.665 21.1633 26.6627 19.46 27.3982C17.7567 28.1337 15.9367 28.5009 14 28.5Z" fill="#1B1C1B"/>
</g>
<defs>
<clipPath id="clip0_677_2396">
<rect width="28" height="28" fill="white" transform="translate(0 0.5)"/>
</clipPath>
</defs>
</svg>
