<svg width="25" height="24" viewBox="0 0 25 24" fill="none" xmlns="http://www.w3.org/2000/svg">
<g clip-path="url(#clip0_501_3186)">
<path fill-rule="evenodd" clip-rule="evenodd" d="M2.50969 20.654C3.85417 21.9997 6.01958 21.9997 10.3492 21.9997H14.8615C14.5391 21.4461 14.3687 20.8171 14.3678 20.1764C14.3678 19.2395 14.7352 18.3486 15.3517 17.6941H14.3678C14.1394 17.6941 13.9204 17.6034 13.7589 17.4419C13.5974 17.2804 13.5067 17.0614 13.5067 16.833C13.5067 16.6046 13.5974 16.3856 13.7589 16.2241C13.9204 16.0626 14.1394 15.9719 14.3678 15.9719H16.5814C17.1681 14.4908 18.5642 13.3886 20.3002 13.3886C22.0914 13.3886 23.5265 14.5689 24.0754 16.1212L24.0914 16.1326C24.127 15.1946 24.127 14.1004 24.127 12.8145V12.5275H1.16406V12.8145C1.16406 17.1442 1.16406 19.3096 2.50969 20.654ZM5.75666 18.8423C5.52827 18.8423 5.30925 18.7515 5.14776 18.5901C4.98627 18.4286 4.89554 18.2095 4.89554 17.9812V15.6849C4.89554 15.4565 4.98627 15.2375 5.14776 15.076C5.30925 14.9145 5.52827 14.8237 5.75666 14.8237C5.98504 14.8237 6.20406 14.9145 6.36555 15.076C6.52704 15.2375 6.61777 15.4565 6.61777 15.6849V17.9812C6.61777 18.2095 6.52704 18.4286 6.36555 18.5901C6.20406 18.7515 5.98504 18.8423 5.75666 18.8423ZM9.2011 18.8423C8.97272 18.8423 8.75369 18.7515 8.5922 18.5901C8.43071 18.4286 8.33999 18.2095 8.33999 17.9812V15.6849C8.33999 15.4565 8.43071 15.2375 8.5922 15.076C8.75369 14.9145 8.97272 14.8237 9.2011 14.8237C9.42948 14.8237 9.64851 14.9145 9.81 15.076C9.97149 15.2375 10.0622 15.4565 10.0622 15.6849V17.9812C10.0622 18.2095 9.97149 18.4286 9.81 18.5901C9.64851 18.7515 9.42948 18.8423 9.2011 18.8423ZM2.50969 2.67864C1.16406 4.02312 1.16406 6.18853 1.16406 10.5182V10.8052H24.127V10.5182C24.127 6.18853 24.127 4.02312 22.7814 2.67864C21.4369 1.33301 19.2715 1.33301 14.9418 1.33301H10.3492C6.01958 1.33301 3.85417 1.33301 2.50969 2.67864ZM9.2011 8.50893C8.97272 8.50893 8.75369 8.41821 8.5922 8.25672C8.43071 8.09523 8.33999 7.8762 8.33999 7.64782V5.35153C8.33999 5.12315 8.43071 4.90412 8.5922 4.74263C8.75369 4.58114 8.97272 4.49042 9.2011 4.49042C9.42948 4.49042 9.64851 4.58114 9.81 4.74263C9.97149 4.90412 10.0622 5.12315 10.0622 5.35153V7.64782C10.0622 7.8762 9.97149 8.09523 9.81 8.25672C9.64851 8.41821 9.42948 8.50893 9.2011 8.50893ZM4.89554 7.64782C4.89554 7.8762 4.98627 8.09523 5.14776 8.25672C5.30925 8.41821 5.52827 8.50893 5.75666 8.50893C5.98504 8.50893 6.20406 8.41821 6.36555 8.25672C6.52704 8.09523 6.61777 7.8762 6.61777 7.64782V5.35153C6.61777 5.12315 6.52704 4.90412 6.36555 4.74263C6.20406 4.58114 5.98504 4.49042 5.75666 4.49042C5.52827 4.49042 5.30925 4.58114 5.14776 4.74263C4.98627 4.90412 4.89554 5.12315 4.89554 5.35153V7.64782ZM13.5067 6.49967C13.5067 6.27129 13.5974 6.05227 13.7589 5.89078C13.9204 5.72929 14.1394 5.63856 14.3678 5.63856H19.5344C19.7628 5.63856 19.9818 5.72929 20.1433 5.89078C20.3048 6.05227 20.3955 6.27129 20.3955 6.49967C20.3955 6.72806 20.3048 6.94708 20.1433 7.10857C19.9818 7.27006 19.7628 7.36079 19.5344 7.36079H14.3678C14.1394 7.36079 13.9204 7.27006 13.7589 7.10857C13.5974 6.94708 13.5067 6.72806 13.5067 6.49967Z" fill="black"/>
<path fill-rule="evenodd" clip-rule="evenodd" d="M22.5854 17.2689C22.458 16.0553 21.4855 15.1104 20.304 15.1104C19.3339 15.1104 18.5037 15.7476 18.1673 16.6489C17.9585 17.2081 17.9525 17.8228 18.1501 18.386C17.8564 18.3276 17.5523 18.349 17.2696 18.448C16.987 18.5469 16.7359 18.7198 16.5427 18.9486C16.2507 19.2907 16.0914 19.7263 16.0938 20.176C16.0938 21.1829 16.8653 21.9992 17.816 21.9992H21.8345C23.1032 21.9992 24.1308 20.9108 24.1308 19.5675C24.1308 18.5031 23.4844 17.5995 22.5854 17.27V17.2689Z" fill="black"/>
<path fill-rule="evenodd" clip-rule="evenodd" d="M22.5854 17.2698C22.458 16.0563 21.4855 15.1113 20.304 15.1113C19.3339 15.1113 18.5037 15.7486 18.1673 16.6498C17.9585 17.2091 17.9525 17.8238 18.1501 18.387C17.8564 18.3286 17.5523 18.35 17.2696 18.449C16.987 18.5479 16.7359 18.7208 16.5427 18.9496C16.2507 19.2916 16.0914 19.7272 16.0938 20.177C16.0938 21.1839 16.8653 22.0002 17.816 22.0002H21.8345C23.1032 22.0002 24.1308 20.9118 24.1308 19.5684C24.1308 18.5041 23.4844 17.6005 22.5854 17.271V17.2698Z" fill="black"/>
</g>
<defs>
<clipPath id="clip0_501_3186">
<rect width="24" height="24" fill="white" transform="translate(0.5)"/>
</clipPath>
</defs>
</svg>
