<svg width="20" height="20" viewBox="0 0 20 20" fill="none" xmlns="http://www.w3.org/2000/svg">
<path d="M10 17.9062C14.3665 17.9062 17.9062 14.3665 17.9062 10C17.9062 5.6335 14.3665 2.09375 10 2.09375C5.6335 2.09375 2.09375 5.6335 2.09375 10C2.09375 14.3665 5.6335 17.9062 10 17.9062Z" stroke="#FF4432"/>
<g clip-path="url(#clip0_15564_767)">
<path d="M13.7213 8.31533C13.6751 8.20769 13.5692 8.13793 13.4521 8.13793H11.4157L12.7727 5.42399C12.8181 5.33321 12.8133 5.22532 12.7599 5.13895C12.7065 5.05256 12.6122 5 12.5106 5L8.43116 5.00023C8.31138 5.00023 8.20366 5.07316 8.15917 5.1844L6.27633 9.89111C6.24022 9.98137 6.25124 10.0837 6.30575 10.1642C6.36024 10.2447 6.45112 10.2929 6.54835 10.2929H8.9399L7.21777 14.5982C7.16558 14.7287 7.21334 14.8778 7.33166 14.9536C7.38023 14.9848 7.43514 15 7.48967 15C7.5678 15 7.6452 14.9688 7.70219 14.9088L13.6645 8.63266C13.7451 8.54776 13.7675 8.42295 13.7213 8.31533Z" fill="#FF4432"/>
</g>
<defs>
<clipPath id="clip0_15564_767">
<rect width="10" height="10" fill="white" transform="translate(5 5)"/>
</clipPath>
</defs>
</svg>
