<svg
  xmlns="http://www.w3.org/2000/svg"
  version="1.1"
  width="660px"
  height="660px"
  style="
    shape-rendering: geometricPrecision;
    text-rendering: geometricPrecision;
    image-rendering: optimizeQuality;
    fill-rule: evenodd;
    clip-rule: evenodd;
  "
  xmlns:xlink="http://www.w3.org/1999/xlink"
>
  <g>
    <path
      style="opacity: 0.967"
      fill="#fefffe"
      d="M 379.5,88.5 C 396.065,87.2948 412.065,89.6281 427.5,95.5C 424.957,106.223 422.29,116.89 419.5,127.5C 407.118,121.659 394.118,119.492 380.5,121C 375.699,121.984 371.532,124.15 368,127.5C 365.3,133.267 366.467,138.1 371.5,142C 383.162,148.162 394.496,154.829 405.5,162C 418.203,172.606 422.703,186.106 419,202.5C 415.757,216.411 407.924,226.911 395.5,234C 374.755,243.47 353.088,246.136 330.5,242C 324.066,240.745 317.732,239.078 311.5,237C 310.09,236.632 309.09,235.799 308.5,234.5C 310.835,223.825 313.168,213.158 315.5,202.5C 323.155,204.992 330.822,207.492 338.5,210C 347.838,211.956 357.171,211.956 366.5,210C 370.44,208.114 373.94,205.614 377,202.5C 379.351,197.443 378.518,192.943 374.5,189C 367.326,183.833 359.66,179.5 351.5,176C 323.131,160.148 317.298,138.314 334,110.5C 346.297,97.1288 361.464,89.7954 379.5,88.5 Z"
    />
  </g>
  <g>
    <path
      style="opacity: 0.97"
      fill="#fefffe"
      d="M 78.5,91.5 C 102.502,91.3334 126.502,91.5 150.5,92C 157.1,94.6796 161.267,99.513 163,106.5C 168.44,134.806 173.773,163.139 179,191.5C 191.735,158.461 204.569,125.461 217.5,92.5C 231.484,91.5008 245.484,91.1674 259.5,91.5C 239.164,141.189 218.497,190.856 197.5,240.5C 190.5,240.833 183.5,241.167 176.5,241.5C 169.096,241.481 161.93,240.814 155,239.5C 145.857,204.598 136.857,169.598 128,134.5C 126.112,126.943 123.612,119.61 120.5,112.5C 107.94,104.698 94.2738,99.5314 79.5,97C 77.1904,95.5415 76.8571,93.7081 78.5,91.5 Z"
    />
  </g>
  <g>
    <path
      style="opacity: 0.969"
      fill="#fefffe"
      d="M 275.5,91.5 C 288.85,91.1675 302.183,91.5008 315.5,92.5C 304.512,142.095 293.845,191.761 283.5,241.5C 270.167,241.5 256.833,241.5 243.5,241.5C 253.78,191.435 264.447,141.435 275.5,91.5 Z"
    />
  </g>
  <g>
    <path
      style="opacity: 0.97"
      fill="#fefffe"
      d="M 485.5,91.5 C 498.833,91.5 512.167,91.5 525.5,91.5C 534.812,136.897 544.312,182.23 554,227.5C 554.994,232.118 555.494,236.785 555.5,241.5C 543.482,241.832 531.482,241.499 519.5,240.5C 517.653,233.597 516.319,226.597 515.5,219.5C 499.163,219.333 482.83,219.5 466.5,220C 463.743,226.766 461.076,233.599 458.5,240.5C 444.85,241.499 431.183,241.833 417.5,241.5C 419.354,235.107 421.52,228.774 424,222.5C 440.472,182.752 457.138,143.085 474,103.5C 476.292,97.8303 480.125,93.8303 485.5,91.5 Z M 496.5,135.5 C 497.222,135.918 497.722,136.584 498,137.5C 501.558,154.023 505.058,170.523 508.5,187C 498.506,187.5 488.506,187.666 478.5,187.5C 484.493,170.177 490.493,152.844 496.5,135.5 Z"
    />
  </g>
  <g>
    <path
      style="opacity: 0.996"
      fill="#fefffe"
      d="M -0.5,329.5 C 219.5,329.5 439.5,329.5 659.5,329.5C 659.5,439.5 659.5,549.5 659.5,659.5C 439.5,659.5 219.5,659.5 -0.5,659.5C -0.5,549.5 -0.5,439.5 -0.5,329.5 Z M 171.5,454.5 C 182.428,453.245 192.762,455.079 202.5,460C 201.04,463.089 199.207,465.922 197,468.5C 189.245,464.235 181.078,463.068 172.5,465C 166.124,468.941 164.791,474.274 168.5,481C 175.622,483.948 182.955,486.281 190.5,488C 203.774,493.047 207.941,502.214 203,515.5C 198.936,521.123 193.436,524.623 186.5,526C 174.078,528.156 163.078,525.322 153.5,517.5C 154.8,514.568 156.8,512.234 159.5,510.5C 169.258,516.939 179.591,518.105 190.5,514C 194.5,509 194.5,504 190.5,499C 181.056,495.972 171.722,492.639 162.5,489C 154.551,481.165 153.385,472.331 159,462.5C 162.671,458.923 166.838,456.256 171.5,454.5 Z M 295.5,454.5 C 304.618,453.821 312.951,455.988 320.5,461C 318.542,463.748 316.709,466.582 315,469.5C 306.85,463.559 298.35,463.059 289.5,468C 288.333,469.833 287.167,471.667 286,473.5C 285.333,484.833 285.333,496.167 286,507.5C 288.807,514.073 293.807,517.073 301,516.5C 306.142,516.786 310.808,515.452 315,512.5C 316.955,514.911 318.789,517.411 320.5,520C 308.625,527.823 296.292,528.49 283.5,522C 279.072,518.908 276.239,514.741 275,509.5C 274.056,496.097 274.389,482.764 276,469.5C 280.048,461.282 286.548,456.282 295.5,454.5 Z M 215.5,455.5 C 231.5,455.5 247.5,455.5 263.5,455.5C 263.5,458.833 263.5,462.167 263.5,465.5C 251.167,465.5 238.833,465.5 226.5,465.5C 226.5,472.167 226.5,478.833 226.5,485.5C 237.167,485.5 247.833,485.5 258.5,485.5C 258.5,488.833 258.5,492.167 258.5,495.5C 247.833,495.5 237.167,495.5 226.5,495.5C 226.5,502.5 226.5,509.5 226.5,516.5C 238.833,516.5 251.167,516.5 263.5,516.5C 263.5,519.833 263.5,523.167 263.5,526.5C 247.5,526.5 231.5,526.5 215.5,526.5C 215.5,502.833 215.5,479.167 215.5,455.5 Z M 331.5,455.5 C 335.167,455.5 338.833,455.5 342.5,455.5C 342.333,473.17 342.5,490.836 343,508.5C 348.287,516.23 355.454,518.73 364.5,516C 369.336,514.181 372.169,510.681 373,505.5C 373.5,488.837 373.667,472.17 373.5,455.5C 377.167,455.5 380.833,455.5 384.5,455.5C 384.667,472.17 384.5,488.837 384,505.5C 380.986,519.667 372.153,526.667 357.5,526.5C 346.374,526.858 338.207,522.191 333,512.5C 331.538,493.568 331.038,474.568 331.5,455.5 Z M 396.5,455.5 C 408.505,455.333 420.505,455.5 432.5,456C 445.205,462.094 449.372,471.928 445,485.5C 442.694,490.306 439.194,493.973 434.5,496.5C 438.704,506.407 443.038,516.241 447.5,526C 443.459,526.827 439.459,526.66 435.5,525.5C 431.833,516.833 428.167,508.167 424.5,499.5C 418.872,498.505 413.206,498.171 407.5,498.5C 407.5,507.833 407.5,517.167 407.5,526.5C 403.833,526.5 400.167,526.5 396.5,526.5C 396.5,502.833 396.5,479.167 396.5,455.5 Z M 457.5,455.5 C 473.5,455.5 489.5,455.5 505.5,455.5C 505.5,458.833 505.5,462.167 505.5,465.5C 493.167,465.5 480.833,465.5 468.5,465.5C 468.5,472.167 468.5,478.833 468.5,485.5C 479.167,485.5 489.833,485.5 500.5,485.5C 500.5,488.833 500.5,492.167 500.5,495.5C 489.833,495.5 479.167,495.5 468.5,495.5C 468.5,502.5 468.5,509.5 468.5,516.5C 480.833,516.5 493.167,516.5 505.5,516.5C 505.5,519.833 505.5,523.167 505.5,526.5C 489.5,526.5 473.5,526.5 457.5,526.5C 457.5,502.833 457.5,479.167 457.5,455.5 Z"
    />
  </g>
  <g>
    <path
      style="opacity: 0.936"
      fill="#fefffe"
      d="M 407.5,465.5 C 414.841,465.334 422.174,465.5 429.5,466C 436.553,470.712 438.053,476.878 434,484.5C 432.421,486.041 430.587,487.208 428.5,488C 421.508,488.5 414.508,488.666 407.5,488.5C 407.5,480.833 407.5,473.167 407.5,465.5 Z"
    />
  </g>
</svg>
